      <svg width="178" height="184" viewBox="0 0 178 184" fill="none" xmlns="http://www.w3.org/2000/svg">
      <path d="M3 173H20.5C22.8333 173 24.4167 172.583 25.25 171.75C26.0833 170.75 26.5 169.167 26.5 167V17C26.5 14.6667 26.0833 13.0833 25.25 12.25C24.4167 11.4167 22.8333 11 20.5 11H3V3H85V11H69.5C67.3333 11 65.75 11.4167 64.75 12.25C63.9167 13.0833 63.5 14.6667 63.5 17V91L111.75 35C114.083 32.3333 115.667 30.0833 116.5 28.25C117.5 26.25 118 24 118 21.5C118 18.5 117.167 16 115.5 14C113.833 12 111.667 11 109 11H101.75V3H163.5V11H154.75C151.25 11 147.583 12.25 143.75 14.75C140.083 17.0833 136.833 20 134 23.5L100.5 62.25L153.25 162C155.417 166.167 157.5 169.083 159.5 170.75C161.5 172.25 164.417 173 168.25 173H175V181H96.5V173H106.5C108 173 109.25 172.5 110.25 171.5C111.25 170.333 111.75 169.083 111.75 167.75C111.75 166.75 111.583 165.667 111.25 164.5C111.083 163.167 110.833 162.167 110.5 161.5L74.25 92.5L63.5 104.75V167C63.5 169.167 63.9167 170.75 64.75 171.75C65.75 172.583 67.3333 173 69.5 173H85V181H3V173Z" stroke="#5C64B5" stroke-width="6" stroke-linejoin="round"/>
      </svg>